# xmcd
#
# Track frame offsets: 
#        150
#        20529
#        36325
#        60818
#
# Disc length: 1082 seconds
#
# Revision: 2
# Processed by: cddbd v1.5.2PL0 Copyright (c) Steve Scherf et al.
# Submitted via: ExactAudioCopy v1.0b2
#
DISCID=27043804
DTITLE=高橋瞳 - 青空のナミダ
DYEAR=2005
DGENRE=JPop
TTITLE0=青空のナミダ
TTITLE1=もうひとつの夜明け
TTITLE2=My Answer
TTITLE3=青空のナミダ -Instrumental-
EXTD=YEAR: 2005
EXTT0=
EXTT1=
EXTT2=
EXTT3=
PLAYORDER=
